<svg width="12" height="12" fill="none" xmlns="http://www.w3.org/2000/svg"><path opacity=".4" d="M8.816 6.429H6.612a.172.172 0 00-.13.062.234.234 0 00-.053.152v.428c0 .057.019.112.053.152.035.04.081.063.13.063h2.204a.171.171 0 00.13-.063A.234.234 0 009 7.07v-.428a.234.234 0 00-.054-.152.171.171 0 00-.13-.062zm0 1.714H6.612a.171.171 0 00-.13.063.234.234 0 00-.053.151v.429c0 .057.019.111.053.151.035.04.081.063.13.063h2.204a.171.171 0 00.13-.063A.234.234 0 009 8.786v-.429a.234.234 0 00-.054-.151.171.171 0 00-.13-.063zm0-3.429H6.612a.171.171 0 00-.13.063.234.234 0 00-.053.152v.428c0 .057.019.111.053.152.035.04.081.062.13.062h2.204a.171.171 0 00.13-.062A.234.234 0 009 5.357V4.93a.234.234 0 00-.054-.152.171.171 0 00-.13-.063zm0-1.714H6.612a.172.172 0 00-.13.063.234.234 0 00-.053.151v.429c0 .057.019.111.053.151.035.04.081.063.13.063h2.204a.171.171 0 00.13-.063A.234.234 0 009 3.643v-.429a.234.234 0 00-.054-.151.171.171 0 00-.13-.063z" fill="#646C91"/><path d="M5.388 6.429H3.184a.171.171 0 00-.13.062.234.234 0 00-.054.152v.428c0 .057.02.112.054.152.034.04.081.063.13.063h2.204a.171.171 0 00.13-.063.234.234 0 00.053-.152v-.428a.234.234 0 00-.053-.152.171.171 0 00-.13-.062zm0 1.714H3.184a.171.171 0 00-.13.063.234.234 0 00-.054.151v.429c0 .057.02.111.054.151.034.04.081.063.13.063h2.204a.171.171 0 00.13-.063.234.234 0 00.053-.151v-.429a.234.234 0 00-.053-.151.171.171 0 00-.13-.063zm0-5.143H3.184a.171.171 0 00-.13.063.234.234 0 00-.054.151v.429c0 .057.02.111.054.151.034.04.081.063.13.063h2.204a.171.171 0 00.13-.063.234.234 0 00.053-.151v-.429a.234.234 0 00-.053-.151.171.171 0 00-.13-.063zm0 1.714H3.184a.171.171 0 00-.13.063A.234.234 0 003 4.93v.428c0 .057.02.111.054.152a.17.17 0 00.13.062h2.204a.171.171 0 00.13-.062.234.234 0 00.053-.152V4.93a.234.234 0 00-.053-.152.171.171 0 00-.13-.063z" fill="#646C91"/><rect x=".5" y=".5" width="11" height="11" rx="3.5" stroke="#646C91" stroke-opacity=".25"/></svg>