<svg xmlns="http://www.w3.org/2000/svg" width="420" height="146"><defs><linearGradient id="a" x1="71.696%" x2="25.96%" y1="82.214%" y2="-9.939%"><stop offset="0%" stop-color="#DB00A1"/><stop offset="49%" stop-color="#AC10E9"/><stop offset="100%" stop-color="#5F20FF"/></linearGradient><linearGradient id="b" x1="75.544%" x2="8.718%" y1="56.781%" y2="28.089%"><stop offset="0%" stop-color="#58A9FF"/><stop offset="38%" stop-color="#685FFF"/><stop offset="56%" stop-color="#6E38F1"/><stop offset="74%" stop-color="#721AE6"/><stop offset="89%" stop-color="#7507DF"/><stop offset="100%" stop-color="#7600DD"/></linearGradient><linearGradient id="c" x1="7.235%" x2="94.196%" y1="37.29%" y2="90.991%"><stop offset="7%" stop-color="#FFC800"/><stop offset="33%" stop-color="#FA991B"/><stop offset="38%" stop-color="#F98F21"/><stop offset="43%" stop-color="#F67F2E"/><stop offset="52%" stop-color="#EF5551"/><stop offset="62%" stop-color="#E7237B"/><stop offset="100%" stop-color="#AE00BB"/></linearGradient></defs><g fill="none" style="mix-blend-mode:multiply"><path fill="url(#a)" d="M405.276 592.508c34.348-.35 68.055-9.429 98.01-26.4a233.564 233.564 0 01-29.733 20.107c-58.462 33.524-126.38 46.26-192.867 36.164l-2.221-.362a276.293 276.293 0 01-32.598-7.233c-86.521-25.891-156.742-89.999-190.933-174.309-29.923-76.102-27.46-161.288 6.806-235.499 28.658-60.972 77.95-110.588 135.193-145.378C266.446 17.526 346.653-3.044 427.63.434c80.936 3.87 158.816 32.388 223.387 81.802C572.307 31.04 474.082 20.963 386.78 55.13c-87.3 34.166-153.133 108.447-177.094 199.825-23.15 91.44-2.373 188.546 56.098 262.187 34.174 42.457 84.325 74.353 139.492 75.366" transform="translate(-195)"/><path fill="url(#b)" d="M726.172 671.779c58.605-76.812 72.79-167.8 47.142-257.631a.949.949 0 010-.434v-1.23c-13.98-47.244-39.333-90.258-73.794-125.199-115.516-113.403-299.45-113.403-414.965 0-68.003 69.547-68.003 181.358 0 250.905-34.658-34.33-60.059-77.027-73.794-124.042v-1.881c-45.286-156.314 43.2-320.16 197.882-366.411 92.355-27.87 192.384-7.922 267.306 53.305 8.167 7.233 16.406 14.466 23.427 21.264 7.022 6.8 14.33 15.406 21.064 23.652 130.178 153.84 134.692 372.704 5.732 527.702z" transform="translate(-195)"/><path fill="url(#c)" d="M747.02 833.07c4.505 1.492 9.435-.354 11.884-4.453 2.45-4.099 1.77-9.362-1.639-12.69L514.892 568.062a10.386 10.386 0 00-13.613-.796c-51.3 38.937-114.085 59.318-178.251 57.862a296.595 296.595 0 01-101.879-20.83c-37.424-14.841-71.367-37.407-99.657-66.252C14.733 431.847 5.577 261.07 100.357 143.86-40.08 307.76-30.845 553.448 121.492 706.134c113.27 113.193 311.367 136.338 470.99 72.328a29.33 29.33 0 0122.282 0l132.256 54.607z" transform="translate(-195)"/></g></svg>